<?xml version="1.0" standalone="no"?>
<!DOCTYPE svg PUBLIC "-//W3C//DTD SVG 1.1//EN" "http://www.w3.org/Graphics/SVG/1.1/DTD/svg11.dtd">
<svg width="444px" height="301px" version="1.1" xmlns="http://www.w3.org/2000/svg" xmlns:xlink="http://www.w3.org/1999/xlink" xml:space="preserve" style="fill-rule:evenodd;clip-rule:evenodd;stroke-linejoin:round;stroke-miterlimit:1.41421;">
    <g>
        <g id="Layer2">
            <g>
                <path d="M-0.00848233,301.533L-0.00848233,-0.193811L444.008,-0.193811L444.008,301.533L-0.00848233,301.533ZM7.07697,294.448L436.923,294.448L436.923,6.89164L7.07697,6.89164L7.07697,294.448Z" style="fill:white;fill-opacity:0.8;"/>
            </g>
            <g>
                <path d="M65.053,44.6351L65.053,85.9433C65.053,87.2896 66.1158,88.3524 67.462,88.3524C68.8083,88.3524 69.8711,87.2896 69.8711,85.9433L69.8711,44.6351L82.4832,44.6351C83.7586,44.6351 84.7505,43.6432 84.7505,42.3678C84.7505,41.0924 83.7586,40.1004 82.4832,40.1004L52.37,40.1004C51.0946,40.1004 50.1027,41.0924 50.1027,42.3678C50.1027,43.6432 51.0946,44.6351 52.37,44.6351L65.053,44.6351Z" style="fill:white;fill-rule:nonzero;"/>
                <path d="M134.986,65.5372L134.986,85.9433C134.986,87.2187 136.049,88.3524 137.395,88.3524C138.742,88.3524 139.805,87.2187 139.805,85.9433L139.805,41.9427C139.805,40.6673 138.742,39.5336 137.395,39.5336C136.049,39.5336 134.986,40.6673 134.986,41.9427L134.986,61.1442L110.329,61.1442L110.329,41.9427C110.329,40.6673 109.266,39.5336 107.92,39.5336C106.574,39.5336 105.511,40.6673 105.511,41.9427L105.511,85.9433C105.511,87.2187 106.574,88.3524 107.92,88.3524C109.266,88.3524 110.329,87.2187 110.329,85.9433L110.329,65.5372L134.986,65.5372Z" style="fill:white;fill-rule:nonzero;"/>
                <path d="M190.395,87.7855C191.599,87.7855 192.591,86.7936 192.591,85.5891C192.591,84.3845 191.599,83.3926 190.395,83.3926L169.28,83.3926L169.28,65.9623L184.868,65.9623C186.073,65.9623 187.064,64.9704 187.064,63.7659C187.064,62.5613 186.073,61.5694 184.868,61.5694L169.28,61.5694L169.28,44.4934L189.615,44.4934C190.82,44.4934 191.812,43.5015 191.812,42.2969C191.812,41.0924 190.82,40.1004 189.615,40.1004L166.871,40.1004C165.525,40.1004 164.462,41.1633 164.462,42.5095L164.462,85.3765C164.462,86.7227 165.525,87.7855 166.871,87.7855L190.395,87.7855Z" style="fill:white;fill-rule:nonzero;"/>
                <path d="M72.2093,183.723C78.7279,183.723 85.1048,180.747 88.2224,176.212C88.5058,175.787 88.6475,175.433 88.6475,174.866C88.6475,173.59 87.6556,172.598 86.3802,172.598C85.8134,172.598 85.034,172.811 84.538,173.52C81.7746,177.487 76.8857,179.33 72.2093,179.33C61.2977,179.33 55.0625,173.661 55.0625,158.923C55.0625,145.036 61.2977,138.447 72.2093,138.447C77.5234,138.447 82.1289,141.068 84.538,144.398C85.1048,145.107 85.7425,145.319 86.3802,145.319C87.6556,145.319 88.6475,144.327 88.6475,143.052C88.6475,142.556 88.5058,142.06 88.1516,141.564C84.8214,136.959 78.9405,134.054 72.2093,134.054C58.4635,134.054 50.1027,142.131 50.1027,158.923C50.1027,176.354 58.4635,183.723 72.2093,183.723Z" style="fill:white;fill-rule:nonzero;"/>
                <path d="M135.837,164.238L119.044,164.238L127.405,142.556L135.837,164.238ZM137.325,168.631L142.426,181.668C142.78,182.589 143.56,183.297 144.764,183.297C146.252,183.297 147.244,182.164 147.244,180.888C147.244,180.676 147.173,180.18 147.032,179.826L129.743,136.108C129.389,135.258 128.609,134.479 127.405,134.479C126.13,134.479 125.492,135.258 125.138,136.108L107.849,179.826C107.707,180.109 107.637,180.605 107.637,180.888C107.637,182.164 108.699,183.297 110.046,183.297C111.25,183.297 112.03,182.518 112.384,181.597L117.556,168.631L137.325,168.631Z" style="fill:white;fill-rule:nonzero;"/>
                <path d="M189.757,175.007C190.607,175.007 191.387,174.582 191.883,173.661L206.762,146.099L206.762,180.959C206.762,182.235 207.825,183.297 209.1,183.297C210.376,183.297 211.438,182.235 211.438,180.959L211.438,136.817C211.438,135.541 210.376,134.479 209.1,134.479C207.825,134.479 207.258,135.329 206.975,135.825L189.757,167.922L172.61,135.825C172.256,135.116 171.547,134.479 170.485,134.479C169.209,134.479 168.146,135.541 168.146,136.817L168.146,180.959C168.146,182.235 169.209,183.297 170.485,183.297C171.76,183.297 172.823,182.235 172.823,180.959L172.823,146.099L187.631,173.661C188.127,174.653 189.048,175.007 189.757,175.007Z" style="fill:white;fill-rule:nonzero;"/>
                <path d="M241.622,139.438L252.605,139.438C258.273,139.438 261.958,142.627 261.958,148.862C261.958,155.026 258.344,158.357 252.605,158.357L241.622,158.357L241.622,139.438ZM241.622,162.75L253.313,162.75C261.037,162.75 266.847,158.144 266.847,148.862C266.847,139.438 260.895,135.046 253.313,135.046L239.213,135.046C237.867,135.046 236.804,136.108 236.804,137.455L236.804,180.888C236.804,182.235 237.867,183.297 239.213,183.297C240.56,183.297 241.622,182.235 241.622,180.888L241.622,162.75Z" style="fill:white;fill-rule:nonzero;"/>
                <path d="M306.029,183.723C319.421,183.723 322.609,175.999 322.609,168.205L322.609,136.888C322.609,135.541 321.546,134.479 320.2,134.479C318.854,134.479 317.791,135.541 317.791,136.888L317.791,168.205C317.791,173.803 315.736,179.188 306.029,179.188C296.251,179.188 294.197,173.803 294.197,168.205L294.197,136.888C294.197,135.541 293.134,134.479 291.787,134.479C290.441,134.479 289.378,135.541 289.378,136.888L289.378,168.205C289.378,175.999 292.638,183.723 306.029,183.723Z" style="fill:white;fill-rule:nonzero;"/>
                <path d="M373.341,144.044C373.908,144.753 374.546,144.965 375.183,144.965C376.459,144.965 377.451,143.973 377.451,142.698C377.451,142.202 377.309,141.777 377.025,141.352C374.05,136.888 368.594,134.054 361.863,134.054C351.518,134.054 346.771,139.651 346.771,146.17C346.771,162.962 373.554,156.727 373.554,169.977C373.554,176.212 369.161,179.33 361.367,179.33C355.131,179.33 351.022,176.283 348.754,172.598C348.329,171.89 347.621,171.465 346.771,171.465C345.495,171.465 344.503,172.457 344.503,173.732C344.503,174.157 344.574,174.441 344.857,175.007C347.267,179.613 353.289,183.723 361.367,183.723C372.278,183.723 378.372,178.834 378.372,169.977C378.372,152.901 351.589,157.932 351.589,146.17C351.589,142.131 354.423,138.447 361.863,138.447C367.814,138.447 371.215,141.422 373.341,144.044Z" style="fill:white;fill-rule:nonzero;"/>
                <path d="M71.4299,252.947C72.2801,252.947 73.0595,252.522 73.5555,251.601L88.435,224.039L88.435,258.899C88.435,260.175 89.4978,261.237 90.7732,261.237C92.0486,261.237 93.1114,260.175 93.1114,258.899L93.1114,214.757C93.1114,213.481 92.0486,212.419 90.7732,212.419C89.4978,212.419 88.931,213.269 88.6475,213.765L71.4299,245.862L54.2831,213.765C53.9288,213.056 53.2203,212.419 52.1575,212.419C50.8821,212.419 49.8193,213.481 49.8193,214.757L49.8193,258.899C49.8193,260.175 50.8821,261.237 52.1575,261.237C53.4328,261.237 54.4957,260.175 54.4957,258.899L54.4957,224.039L69.3042,251.601C69.8002,252.593 70.7213,252.947 71.4299,252.947Z" style="fill:white;fill-rule:nonzero;"/>
                <path d="M116.352,214.828C116.352,213.552 115.289,212.419 113.943,212.419C112.596,212.419 111.534,213.552 111.534,214.828L111.534,258.828C111.534,260.104 112.596,261.237 113.943,261.237C115.289,261.237 116.352,260.104 116.352,258.828L116.352,214.828Z" style="fill:white;fill-rule:nonzero;"/>
                <path d="M165.737,212.419C164.462,212.419 163.399,213.481 163.399,214.757L163.399,251.105L138.317,213.411C137.962,212.915 137.254,212.419 136.403,212.419C135.128,212.419 134.065,213.481 134.065,214.757L134.065,258.899C134.065,260.175 135.128,261.237 136.403,261.237C137.679,261.237 138.742,260.175 138.742,258.899L138.742,222.622L163.682,260.245C164.178,260.883 164.816,261.237 165.666,261.237C167.013,261.237 168.075,260.175 168.075,258.828L168.075,214.757C168.075,213.481 167.013,212.419 165.737,212.419Z" style="fill:white;fill-rule:nonzero;"/>
                <path d="M190.607,214.828C190.607,213.552 189.544,212.419 188.198,212.419C186.852,212.419 185.789,213.552 185.789,214.828L185.789,258.828C185.789,260.104 186.852,261.237 188.198,261.237C189.544,261.237 190.607,260.104 190.607,258.828L190.607,214.828Z" style="fill:white;fill-rule:nonzero;"/>
                <path d="M234.75,221.984C235.316,222.693 235.954,222.905 236.592,222.905C237.867,222.905 238.859,221.913 238.859,220.638C238.859,220.142 238.717,219.717 238.434,219.292C235.458,214.828 230.002,211.994 223.271,211.994C212.926,211.994 208.179,217.591 208.179,224.11C208.179,240.902 234.962,234.667 234.962,247.917C234.962,254.152 230.569,257.27 222.775,257.27C216.54,257.27 212.43,254.223 210.163,250.538C209.738,249.83 209.029,249.405 208.179,249.405C206.904,249.405 205.912,250.397 205.912,251.672C205.912,252.097 205.983,252.381 206.266,252.947C208.675,257.553 214.698,261.663 222.775,261.663C233.687,261.663 239.78,256.774 239.78,247.917C239.78,230.841 212.997,235.872 212.997,224.11C212.997,220.071 215.831,216.387 223.271,216.387C229.223,216.387 232.624,219.362 234.75,221.984Z" style="fill:white;fill-rule:nonzero;"/>
                <path d="M259.549,217.52L259.549,258.828C259.549,260.175 260.611,261.237 261.958,261.237C263.304,261.237 264.367,260.175 264.367,258.828L264.367,217.52L276.979,217.52C278.254,217.52 279.246,216.528 279.246,215.253C279.246,213.977 278.254,212.985 276.979,212.985L246.866,212.985C245.59,212.985 244.598,213.977 244.598,215.253C244.598,216.528 245.59,217.52 246.866,217.52L259.549,217.52Z" style="fill:white;fill-rule:nonzero;"/>
                <path d="M298.589,217.378L310.21,217.378C315.311,217.378 318.925,221.275 318.925,226.519C318.925,231.62 315.382,235.659 310.422,235.659L298.589,235.659L298.589,217.378ZM298.589,240.052L305.746,240.052L320.129,260.104C320.696,260.954 321.476,261.237 322.184,261.237C323.53,261.237 324.593,260.175 324.593,258.828C324.593,258.332 324.451,257.766 324.097,257.34L311.131,240.052C318.783,239.698 323.814,233.817 323.814,226.519C323.814,218.937 318.145,212.985 310.28,212.985L296.18,212.985C294.834,212.985 293.771,214.048 293.771,215.395L293.771,258.828C293.771,260.175 294.834,261.237 296.18,261.237C297.527,261.237 298.589,260.175 298.589,258.828L298.589,240.052Z" style="fill:white;fill-rule:nonzero;"/>
                <path d="M352.226,261.237C353.573,261.237 354.635,260.175 354.635,258.828L354.635,238.493L368.877,216.103C369.09,215.749 369.231,215.324 369.231,214.828C369.231,213.481 368.169,212.419 366.822,212.419C365.972,212.419 365.193,212.844 364.768,213.552L352.226,233.675L339.685,213.552C339.26,212.844 338.481,212.419 337.63,212.419C336.284,212.419 335.221,213.481 335.221,214.828C335.221,215.324 335.363,215.749 335.576,216.103L349.817,238.493L349.817,258.828C349.817,260.175 350.88,261.237 352.226,261.237Z" style="fill:white;fill-rule:nonzero;"/>
            </g>
            <g>
                <rect x="50.1834" y="105.503" width="142.297" height="7.08545" style="fill:white;"/>
            </g>
        </g>
    </g>
</svg>
